{"glyphs":{"0":{"ha":800,"x_min":0,"x_max":600,"o":"m 600 901 q 600 100 600 633 q 571 30 600 58 q 500 0 541 0 q 100 0 366 0 q 30 30 58 0 q 0 100 0 58 q 0 401 0 201 q 0 608 0 484 q 0 901 0 734 q 30 971 0 941 q 100 1000 58 1000 q 500 1000 233 1000 q 571 971 541 1000 q 600 901 600 941 m 199 199 q 400 199 267 199 q 400 239 400 213 q 400 800 400 426 q 199 800 334 800 q 199 500 199 700 q 199 199 199 400 z "},"1":{"ha":500,"x_min":0,"x_max":300,"o":"m 300 901 q 300 0 300 600 q 100 0 233 0 q 100 800 100 267 q 0 800 66 800 q 0 883 0 833 q 0 1000 0 933 q 199 1000 66 1000 q 271 971 241 1000 q 300 901 300 941 z "},"2":{"ha":800,"x_min":0,"x_max":600,"o":"m 199 400 q 199 199 199 334 q 600 199 334 199 q 600 0 600 133 q 0 0 400 0 q 0 100 0 34 q 0 199 0 133 q 0 324 0 250 q 0 500 0 400 q 30 571 0 541 q 100 600 58 600 q 400 600 199 600 q 400 800 400 667 q 199 800 334 800 q 199 726 199 774 q 0 726 133 726 q 0 901 0 784 q 30 971 0 941 q 100 1000 58 1000 q 500 1000 233 1000 q 571 971 541 1000 q 600 901 600 941 q 600 500 600 766 q 571 429 600 458 q 500 400 541 400 q 199 400 400 400 z "},"3":{"ha":800,"x_min":0,"x_max":600,"o":"m 500 500 q 571 471 541 500 q 600 400 600 442 q 600 100 600 300 q 571 30 600 58 q 500 0 541 0 q 100 0 366 0 q 30 30 58 0 q 0 100 0 58 q 0 172 0 129 q 0 275 0 217 q 199 275 66 275 q 199 199 199 250 q 400 199 267 199 q 400 400 400 267 q 199 400 334 400 q 199 600 199 467 q 400 600 267 600 q 400 800 400 667 q 199 800 334 800 q 199 726 199 774 q 0 726 133 726 q 0 901 0 784 q 30 971 0 941 q 100 1000 58 1000 q 500 1000 233 1000 q 571 971 541 1000 q 600 901 600 941 q 600 600 600 800 q 571 529 600 559 q 500 500 541 500 z "},"4":{"ha":800,"x_min":0,"x_max":600,"o":"m 600 1000 q 600 0 600 667 q 400 0 533 0 q 400 400 400 133 q 100 400 300 400 q 30 429 58 400 q 0 500 0 458 q 0 708 0 583 q 0 1000 0 833 q 199 1000 66 1000 q 199 600 199 867 q 400 600 267 600 q 400 1000 400 734 q 600 1000 467 1000 z "},"5":{"ha":800,"x_min":0,"x_max":600,"o":"m 199 800 q 199 600 199 734 q 500 600 300 600 q 571 571 541 600 q 600 500 600 541 q 600 100 600 366 q 579 38 600 65 q 525 3 557 11 q 525 0 525 1 q 100 0 384 0 q 30 30 58 0 q 0 100 0 58 q 0 300 0 167 q 199 300 66 300 q 199 199 199 267 q 400 199 267 199 q 400 400 400 267 q 199 400 334 400 q 100 400 167 400 q 0 400 66 400 q 0 567 0 467 q 0 800 0 667 q 0 925 0 842 q 0 1000 0 949 q 600 1000 199 1000 q 600 800 600 933 q 199 800 467 800 z "},"6":{"ha":800,"x_min":0,"x_max":600,"o":"m 400 700 q 400 800 400 734 q 199 800 334 800 q 199 600 199 734 q 500 600 300 600 q 571 571 541 600 q 600 500 600 541 q 600 100 600 366 q 571 30 600 58 q 500 0 541 0 q 100 0 366 0 q 30 30 58 0 q 0 100 0 58 q 0 401 0 201 q 0 608 0 484 q 0 901 0 734 q 30 971 0 941 q 100 1000 58 1000 q 500 1000 233 1000 q 571 971 541 1000 q 600 901 600 941 q 600 700 600 833 q 400 700 533 700 m 199 400 q 199 199 199 334 q 400 199 267 199 q 400 235 400 212 q 400 400 400 290 q 199 400 334 400 z "},"7":{"ha":800,"x_min":0,"x_max":600,"o":"m 425 1000 q 387 1000 415 1000 q 0 1000 290 1000 q 0 925 0 975 q 0 800 0 875 q 308 800 77 800 q 0 0 231 600 q 214 0 72 0 q 600 1000 343 334 q 425 1000 541 1000 z "},"8":{"ha":800,"x_min":0,"x_max":600,"o":"m 500 500 q 571 471 541 500 q 600 400 600 442 q 600 100 600 300 q 571 30 600 58 q 500 0 541 0 q 100 0 366 0 q 30 30 58 0 q 0 100 0 58 q 0 400 0 199 q 30 471 0 442 q 100 500 58 500 q 30 529 58 500 q 0 600 0 559 q 0 724 0 650 q 0 901 0 800 q 30 971 0 941 q 100 1000 58 1000 q 500 1000 233 1000 q 571 971 541 1000 q 600 901 600 941 q 600 600 600 800 q 571 529 600 559 q 500 500 541 500 m 400 400 q 199 400 334 400 q 199 199 199 334 q 400 199 267 199 q 400 235 400 212 q 400 400 400 290 m 400 600 q 400 635 400 612 q 400 800 400 690 q 199 800 334 800 q 199 600 199 734 q 400 600 267 600 z "},"9":{"ha":800,"x_min":0,"x_max":600,"o":"m 199 300 q 199 199 199 267 q 400 199 267 199 q 400 400 400 267 q 100 400 300 400 q 30 429 58 400 q 0 500 0 458 q 0 667 0 567 q 0 901 0 768 q 30 971 0 941 q 100 1000 58 1000 q 500 1000 233 1000 q 571 971 541 1000 q 600 901 600 941 q 600 100 600 633 q 571 30 600 58 q 500 0 541 0 q 100 0 366 0 q 30 30 58 0 q 0 100 0 58 q 0 300 0 167 q 199 300 66 300 m 400 600 q 400 635 400 612 q 400 800 400 690 q 199 800 334 800 q 199 600 199 734 q 400 600 267 600 z "},"\u0000":{"ha":0,"x_min":0,"x_max":0,"o":""},"\r":{"ha":0,"x_min":0,"x_max":0,"o":""}," ":{"ha":800,"x_min":0,"x_max":0,"o":""},"!":{"ha":400,"x_min":0,"x_max":199,"o":"m 0 1000 q 199 1000 50 1000 q 199 300 199 825 q 0 300 151 300 q 0 562 0 387 q 0 1000 0 736 m 0 199 q 199 199 50 199 q 199 0 199 151 q 0 0 151 0 q 0 75 0 24 q 0 199 0 125 z "},"\"":{"ha":700,"x_min":0,"x_max":500,"o":"m 0 1000 q 199 1000 50 1000 q 199 600 199 901 q 0 600 151 600 q 0 750 0 650 q 0 1000 0 849 m 300 1000 q 500 1000 350 1000 q 500 600 500 901 q 300 600 450 600 q 300 1000 300 700 z "},"#":{"ha":1301,"x_min":0,"x_max":1137,"o":"m 888 595 q 852 403 876 532 q 1058 403 921 403 q 1020 203 1046 336 q 812 203 951 203 q 772 0 799 136 q 568 0 704 0 q 609 205 582 68 q 412 205 543 205 q 372 0 399 136 q 168 0 304 0 q 209 205 182 68 q 0 205 138 205 q 39 406 14 271 q 247 406 109 406 q 285 597 259 469 q 77 597 216 597 q 117 798 91 663 q 324 798 186 798 q 363 1000 336 865 q 568 1000 431 1000 q 528 796 555 932 q 724 796 593 796 q 764 1000 736 864 q 968 1000 831 1000 q 928 796 955 932 q 1137 796 997 796 q 1097 595 1123 730 q 888 595 1028 595 m 685 595 q 488 595 620 595 q 452 404 476 532 q 647 404 517 404 q 685 595 659 468 z "},"$":{"ha":800,"x_min":0,"x_max":600,"o":"m 400 700 q 400 799 400 732 q 199 799 334 799 q 199 600 199 732 q 500 600 300 600 q 571 570 541 600 q 600 499 600 541 q 600 99 600 366 q 571 28 600 58 q 500 0 541 0 q 400 0 467 0 q 400 -100 400 -34 q 199 -100 334 -100 q 199 0 199 -68 q 100 0 167 0 q 30 28 58 0 q 0 99 0 58 q 0 300 0 165 q 199 300 66 300 q 199 199 199 266 q 400 199 267 199 q 400 400 400 266 q 100 400 300 400 q 30 429 58 400 q 0 499 0 458 q 0 666 0 567 q 0 899 0 766 q 30 970 0 941 q 100 1000 58 1000 q 199 1000 133 1000 q 199 1100 199 1032 q 400 1100 267 1100 q 400 1000 400 1066 q 500 1000 433 1000 q 571 970 541 1000 q 600 899 600 941 q 600 700 600 833 q 400 700 533 700 z "},"%":{"ha":1200,"x_min":0,"x_max":1000,"o":"m 875 1000 q 358 0 746 750 q 125 0 300 0 q 642 1000 254 250 q 875 1000 700 1000 m 300 600 q 100 600 233 600 q 30 629 58 600 q 0 700 0 658 q 0 783 0 732 q 0 901 0 833 q 30 971 0 941 q 100 1000 58 1000 q 300 1000 167 1000 q 370 971 342 1000 q 400 901 400 941 q 400 798 400 865 q 400 700 400 765 q 370 629 400 658 q 300 600 342 600 m 199 700 q 300 700 233 700 q 300 800 300 734 q 300 901 300 833 q 199 901 267 901 q 100 901 167 901 q 100 859 100 884 q 100 800 100 834 q 100 700 100 766 q 199 700 133 700 m 1000 300 q 1000 100 1000 233 q 971 30 1000 58 q 901 0 941 0 q 700 0 833 0 q 629 30 658 0 q 600 100 600 58 q 600 300 600 167 q 629 370 600 342 q 700 400 658 400 q 901 400 766 400 q 971 370 941 400 q 1000 300 1000 342 m 901 300 q 800 300 867 300 q 700 300 766 300 q 700 199 700 267 q 700 100 700 167 q 800 100 734 100 q 901 100 833 100 q 901 199 901 133 q 901 300 901 233 z "},"&":{"ha":901,"x_min":0,"x_max":700,"o":"m 600 400 q 600 199 600 334 q 700 199 633 199 q 700 0 700 133 q 600 0 667 0 q 529 30 559 0 q 500 100 500 58 q 471 30 500 58 q 400 0 442 0 q 100 0 300 0 q 30 30 58 0 q 0 100 0 58 q 0 400 0 199 q 30 471 0 442 q 100 500 58 500 q 30 529 58 500 q 0 600 0 559 q 0 724 0 650 q 0 901 0 800 q 30 971 0 941 q 100 1000 58 1000 q 400 1000 199 1000 q 400 800 400 933 q 199 800 334 800 q 199 600 199 734 q 400 600 267 600 q 400 700 400 633 q 600 700 467 700 q 600 600 600 667 q 700 600 633 600 q 700 400 700 533 q 600 400 667 400 m 400 400 q 199 400 334 400 q 199 199 199 334 q 400 199 267 199 q 400 235 400 212 q 400 400 400 290 z "},"'":{"ha":400,"x_min":0,"x_max":199,"o":"m 0 1000 q 199 1000 50 1000 q 199 600 199 901 q 0 600 151 600 q 0 750 0 650 q 0 1000 0 849 z "},"(":{"ha":500,"x_min":0,"x_max":300,"o":"m 199 800 q 199 199 199 600 q 300 199 233 199 q 300 0 300 133 q 199 0 267 0 q 100 0 167 0 q 30 30 58 0 q 0 100 0 58 q 0 401 0 201 q 0 608 0 484 q 0 901 0 734 q 30 971 0 941 q 100 1000 58 1000 q 199 1000 133 1000 q 300 1000 233 1000 q 300 800 300 933 q 199 800 267 800 z "},")":{"ha":500,"x_min":0,"x_max":300,"o":"m 100 199 q 100 800 100 400 q 0 800 66 800 q 0 883 0 833 q 0 1000 0 933 q 100 1000 34 1000 q 199 1000 133 1000 q 271 971 241 1000 q 300 901 300 941 q 300 503 300 768 q 300 100 300 369 q 271 30 300 58 q 199 0 241 0 q 100 0 167 0 q 0 0 66 0 q 0 199 0 66 q 100 199 34 199 z "},"*":{"ha":700,"x_min":0,"x_max":500,"o":"m 500 825 q 351 792 463 817 q 479 873 384 812 q 373 979 453 901 q 292 852 353 947 q 326 1000 302 901 q 175 1000 275 1000 q 209 852 186 951 q 126 979 180 894 q 20 873 91 944 q 149 792 64 846 q 0 825 99 803 q 0 764 0 800 q 0 675 0 726 q 149 708 50 686 q 20 627 106 681 q 126 521 56 591 q 209 648 153 563 q 175 500 197 600 q 326 500 225 500 q 292 648 313 549 q 373 521 319 606 q 479 627 408 556 q 351 708 437 654 q 500 675 401 697 q 500 825 500 726 z "},"+":{"ha":800,"x_min":0,"x_max":600,"o":"m 600 600 q 400 600 533 600 q 400 800 400 667 q 199 800 334 800 q 199 600 199 734 q 0 600 133 600 q 0 517 0 567 q 0 400 0 467 q 199 400 66 400 q 199 199 199 334 q 400 199 267 199 q 400 400 400 267 q 600 400 467 400 q 600 600 600 467 z "},",":{"ha":400,"x_min":0,"x_max":199,"o":"m 0 199 q 0 126 0 175 q 0 0 0 76 q 85 0 22 0 q 0 -75 65 -19 q 0 -199 0 -117 q 199 0 66 -133 q 199 100 199 34 q 199 199 199 133 q 0 199 133 199 z "},"-":{"ha":800,"x_min":0,"x_max":600,"o":"m 0 600 q 600 600 151 600 q 600 400 600 551 q 0 400 450 400 q 0 483 0 433 q 0 600 0 533 z "},".":{"ha":400,"x_min":0,"x_max":199,"o":"m 0 0 q 199 0 50 0 q 199 199 199 50 q 0 199 151 199 q 0 126 0 175 q 0 0 0 76 z "},"/":{"ha":951,"x_min":0,"x_max":750,"o":"m 233 0 q 750 1000 362 250 q 517 1000 692 1000 q 0 0 388 750 q 233 0 58 0 z "},":":{"ha":400,"x_min":0,"x_max":199,"o":"m 0 199 q 199 199 50 199 q 199 0 199 151 q 0 0 151 0 q 0 83 0 33 q 0 199 0 133 m 0 700 q 199 700 50 700 q 199 500 199 650 q 0 500 151 500 q 0 583 0 533 q 0 700 0 633 z "},";":{"ha":400,"x_min":0,"x_max":199,"o":"m 0 0 q 85 0 22 0 q 0 -75 65 -19 q 0 -201 0 -106 q 199 0 66 -133 q 199 100 199 33 q 199 199 199 133 q 0 199 133 199 q 0 117 0 167 q 0 0 0 66 m 0 700 q 199 700 50 700 q 199 500 199 650 q 0 500 151 500 q 0 583 0 533 q 0 700 0 633 z "},"<":{"ha":700,"x_min":0,"x_max":500,"o":"m 0 617 q 0 530 0 589 q 0 384 0 472 q 500 125 125 319 q 500 358 500 183 q 225 500 431 393 q 500 642 316 547 q 500 875 500 719 q 0 617 334 789 z "},"=":{"ha":800,"x_min":0,"x_max":600,"o":"m 0 749 q 600 749 151 749 q 600 549 600 699 q 0 549 400 549 q 0 632 0 583 q 0 749 0 682 m 0 449 q 600 449 151 449 q 600 250 600 399 q 0 250 400 250 q 0 332 0 283 q 0 449 0 382 z "},">":{"ha":700,"x_min":0,"x_max":500,"o":"m 500 384 q 500 617 500 442 q 0 875 374 681 q 0 642 0 817 q 275 500 69 606 q 0 358 183 453 q 0 262 0 320 q 0 125 0 203 q 500 384 167 212 z "},"?":{"ha":800,"x_min":0,"x_max":600,"o":"m 199 199 q 400 199 267 199 q 400 49 400 149 q 400 0 400 33 q 199 0 334 0 q 199 199 199 66 m 600 901 q 600 600 600 800 q 593 562 600 579 q 571 529 585 543 q 400 358 514 472 q 400 300 400 339 q 199 300 334 300 q 199 400 199 334 q 208 439 199 420 q 229 471 216 457 q 400 642 286 528 q 400 800 400 694 q 199 800 334 800 q 199 700 199 766 q 0 700 133 700 q 0 783 0 732 q 0 901 0 833 q 30 971 0 941 q 100 1000 58 1000 q 500 1000 233 1000 q 571 971 541 1000 q 600 901 600 941 z "},"A":{"ha":800,"x_min":0,"x_max":600,"o":"m 600 0 q 400 0 533 0 q 400 400 400 133 q 199 400 334 400 q 199 0 199 267 q 0 0 133 0 q 0 339 0 113 q 0 572 0 433 q 0 901 0 713 q 30 971 0 941 q 100 1000 58 1000 q 500 1000 233 1000 q 571 971 541 1000 q 600 901 600 941 q 600 0 600 600 m 400 600 q 400 635 400 612 q 400 800 400 690 q 199 800 334 800 q 199 600 199 734 q 400 600 267 600 z "},"B":{"ha":800,"x_min":0,"x_max":600,"o":"m 500 500 q 571 471 541 500 q 600 400 600 442 q 600 100 600 300 q 571 30 600 58 q 500 0 541 0 q 199 0 400 0 q 0 0 133 0 q 0 199 0 66 q 0 400 0 267 q 0 600 0 467 q 0 684 0 633 q 0 800 0 734 q 0 1000 0 867 q 199 1000 66 1000 q 500 1000 300 1000 q 571 971 541 1000 q 600 901 600 941 q 600 600 600 800 q 571 529 600 559 q 500 500 541 500 m 199 600 q 400 600 267 600 q 400 635 400 612 q 400 800 400 690 q 199 800 334 800 q 199 600 199 734 m 199 199 q 400 199 267 199 q 400 235 400 212 q 400 400 400 290 q 199 400 334 400 q 199 199 199 334 z "},"C":{"ha":800,"x_min":0,"x_max":600,"o":"m 400 700 q 400 800 400 734 q 199 800 334 800 q 199 199 199 600 q 400 199 267 199 q 400 300 400 233 q 600 300 467 300 q 600 100 600 233 q 571 30 600 58 q 500 0 541 0 q 100 0 366 0 q 30 30 58 0 q 0 100 0 58 q 0 401 0 201 q 0 608 0 484 q 0 901 0 734 q 30 971 0 941 q 100 1000 58 1000 q 500 1000 233 1000 q 571 971 541 1000 q 600 901 600 941 q 600 700 600 833 q 400 700 533 700 z "},"D":{"ha":800,"x_min":0,"x_max":600,"o":"m 600 901 q 600 100 600 633 q 571 30 600 58 q 500 0 541 0 q 199 0 400 0 q 100 0 167 0 q 0 0 66 0 q 0 416 0 167 q 0 1000 0 666 q 175 1000 58 1000 q 199 1000 183 1000 q 500 1000 300 1000 q 571 971 541 1000 q 600 901 600 941 m 199 199 q 400 199 267 199 q 400 239 400 213 q 400 800 400 426 q 199 800 334 800 q 199 500 199 700 q 199 199 199 400 z "},"E":{"ha":800,"x_min":0,"x_max":600,"o":"m 600 800 q 600 1000 600 850 q 199 1000 500 1000 q 0 1000 151 1000 q 0 800 0 949 q 0 600 0 750 q 0 400 0 551 q 0 199 0 350 q 0 117 0 167 q 0 0 0 66 q 199 0 66 0 q 600 0 334 0 q 600 199 600 66 q 199 199 467 199 q 199 400 199 267 q 500 400 300 400 q 500 600 500 467 q 199 600 400 600 q 199 800 199 667 q 600 800 334 800 z "},"F":{"ha":800,"x_min":0,"x_max":600,"o":"m 199 199 q 199 199 199 199 q 199 400 199 250 q 500 400 275 400 q 500 600 500 450 q 199 600 425 600 q 199 800 199 650 q 600 800 300 800 q 600 1000 600 867 q 199 1000 467 1000 q 0 1000 133 1000 q 0 800 0 933 q 0 716 0 768 q 0 600 0 666 q 0 400 0 533 q 0 199 0 334 q 0 0 0 133 q 199 0 66 0 q 199 0 199 0 q 199 199 199 66 z "},"G":{"ha":800,"x_min":0,"x_max":600,"o":"m 400 700 q 400 800 400 734 q 199 800 334 800 q 199 199 199 600 q 400 199 267 199 q 400 400 400 267 q 300 400 366 400 q 300 600 300 467 q 600 600 400 600 q 600 400 600 533 q 600 100 600 300 q 571 30 600 58 q 500 0 541 0 q 100 0 366 0 q 30 30 58 0 q 0 100 0 58 q 0 401 0 201 q 0 608 0 484 q 0 901 0 734 q 30 971 0 941 q 100 1000 58 1000 q 500 1000 233 1000 q 571 971 541 1000 q 600 901 600 941 q 600 700 600 833 q 400 700 533 700 z "},"H":{"ha":800,"x_min":0,"x_max":600,"o":"m 400 1000 q 400 600 400 901 q 199 600 350 600 q 199 1000 199 700 q 0 1000 151 1000 q 0 600 0 901 q 0 400 0 551 q 0 250 0 350 q 0 0 0 149 q 199 0 66 0 q 199 400 199 133 q 400 400 267 400 q 400 0 400 267 q 600 0 467 0 q 600 400 600 133 q 600 600 600 467 q 600 1000 600 734 q 400 1000 533 1000 z "},"I":{"ha":400,"x_min":0,"x_max":199,"o":"m 0 1000 q 199 1000 50 1000 q 199 250 199 812 q 199 0 199 187 q 0 0 151 0 q 0 374 0 125 q 0 1000 0 624 z "},"J":{"ha":800,"x_min":0,"x_max":600,"o":"m 600 1000 q 600 100 600 700 q 571 30 600 58 q 500 0 541 0 q 100 0 366 0 q 30 30 58 0 q 0 100 0 58 q 0 183 0 133 q 0 300 0 233 q 199 300 66 300 q 199 199 199 267 q 400 199 267 199 q 400 1000 400 467 q 600 1000 467 1000 z "},"K":{"ha":831,"x_min":0,"x_max":631,"o":"m 600 500 q 600 0 600 334 q 400 0 533 0 q 400 400 400 133 q 199 400 334 400 q 199 0 199 267 q 0 0 133 0 q 0 416 0 167 q 0 1000 0 666 q 199 1000 66 1000 q 199 600 199 867 q 243 600 214 600 q 406 1000 297 734 q 631 1000 480 1000 q 444 600 568 867 q 500 600 463 600 q 571 571 541 600 q 600 500 600 541 z "},"L":{"ha":800,"x_min":0,"x_max":600,"o":"m 199 199 q 199 1000 199 400 q 0 1000 151 1000 q 0 625 0 875 q 0 0 0 376 q 50 0 12 0 q 199 0 88 0 q 600 0 300 0 q 600 199 600 50 q 199 199 467 199 z "},"M":{"ha":1200,"x_min":0,"x_max":1000,"o":"m 1000 901 q 1000 0 1000 600 q 800 0 933 0 q 800 800 800 267 q 600 800 734 800 q 600 0 600 533 q 400 0 533 0 q 400 800 400 267 q 199 800 334 800 q 199 0 199 533 q 0 0 133 0 q 0 339 0 113 q 0 572 0 433 q 0 901 0 713 q 30 971 0 941 q 100 1000 58 1000 q 400 1000 199 1000 q 471 971 442 1000 q 500 901 500 941 q 529 971 500 941 q 600 1000 559 1000 q 901 1000 700 1000 q 971 971 941 1000 q 1000 901 1000 941 z "},"N":{"ha":800,"x_min":0,"x_max":600,"o":"m 600 901 q 600 0 600 600 q 400 0 533 0 q 400 800 400 267 q 199 800 334 800 q 199 0 199 533 q 0 0 133 0 q 0 416 0 167 q 0 1000 0 666 q 199 1000 66 1000 q 500 1000 300 1000 q 571 971 541 1000 q 600 901 600 941 z "},"O":{"ha":800,"x_min":0,"x_max":600,"o":"m 600 901 q 600 100 600 633 q 571 30 600 58 q 500 0 541 0 q 100 0 366 0 q 30 30 58 0 q 0 100 0 58 q 0 401 0 201 q 0 608 0 484 q 0 901 0 734 q 30 971 0 941 q 100 1000 58 1000 q 500 1000 233 1000 q 571 971 541 1000 q 600 901 600 941 m 199 199 q 400 199 267 199 q 400 239 400 213 q 400 800 400 426 q 199 800 334 800 q 199 500 199 700 q 199 199 199 400 z "},"P":{"ha":800,"x_min":0,"x_max":600,"o":"m 600 901 q 600 500 600 766 q 571 429 600 458 q 500 400 541 400 q 199 400 400 400 q 199 0 199 267 q 0 0 133 0 q 0 167 0 66 q 0 400 0 266 q 0 600 0 467 q 0 800 0 667 q 0 1000 0 867 q 199 1000 66 1000 q 500 1000 300 1000 q 571 971 541 1000 q 600 901 600 941 m 199 600 q 400 600 267 600 q 400 635 400 612 q 400 800 400 690 q 199 800 334 800 q 199 600 199 734 z "},"Q":{"ha":800,"x_min":0,"x_max":600,"o":"m 533 5 q 597 -100 555 -30 q 363 -100 519 -100 q 304 0 345 -66 q 100 0 236 0 q 30 30 58 0 q 0 100 0 58 q 0 401 0 201 q 0 608 0 484 q 0 901 0 734 q 30 971 0 941 q 100 1000 58 1000 q 500 1000 233 1000 q 571 971 541 1000 q 600 901 600 941 q 600 100 600 633 q 582 42 600 68 q 533 5 563 16 m 199 199 q 400 199 267 199 q 400 239 400 213 q 400 800 400 426 q 199 800 334 800 q 199 500 199 700 q 199 199 199 400 z "},"R":{"ha":800,"x_min":0,"x_max":600,"o":"m 500 500 q 571 471 541 500 q 600 400 600 442 q 600 0 600 267 q 400 0 533 0 q 400 400 400 133 q 199 400 334 400 q 199 0 199 267 q 0 0 133 0 q 0 400 0 133 q 0 600 0 467 q 0 766 0 666 q 0 1000 0 867 q 199 1000 66 1000 q 500 1000 300 1000 q 571 971 541 1000 q 600 901 600 941 q 600 600 600 800 q 571 529 600 559 q 500 500 541 500 m 400 600 q 400 635 400 612 q 400 800 400 690 q 199 800 334 800 q 199 600 199 734 q 400 600 267 600 z "},"S":{"ha":800,"x_min":0,"x_max":600,"o":"m 400 700 q 400 800 400 734 q 199 800 334 800 q 199 600 199 734 q 500 600 300 600 q 571 571 541 600 q 600 500 600 541 q 600 100 600 366 q 571 30 600 58 q 500 0 541 0 q 100 0 366 0 q 30 30 58 0 q 0 100 0 58 q 0 300 0 167 q 199 300 66 300 q 199 199 199 267 q 400 199 267 199 q 400 400 400 267 q 100 400 300 400 q 30 429 58 400 q 0 500 0 458 q 0 667 0 567 q 0 901 0 768 q 30 971 0 941 q 100 1000 58 1000 q 500 1000 233 1000 q 571 971 541 1000 q 600 901 600 941 q 600 700 600 833 q 400 700 533 700 z "},"T":{"ha":800,"x_min":0,"x_max":600,"o":"m 600 1000 q 0 1000 450 1000 q 0 925 0 975 q 0 800 0 875 q 199 800 50 800 q 199 0 199 600 q 400 0 250 0 q 400 800 400 199 q 600 800 450 800 q 600 1000 600 867 z "},"U":{"ha":800,"x_min":0,"x_max":600,"o":"m 600 1000 q 600 100 600 700 q 571 30 600 58 q 500 0 541 0 q 100 0 366 0 q 30 30 58 0 q 0 100 0 58 q 0 475 0 250 q 0 1000 0 700 q 199 1000 66 1000 q 199 199 199 734 q 400 199 267 199 q 400 1000 400 467 q 600 1000 467 1000 z "},"V":{"ha":894,"x_min":-27,"x_max":722,"o":"m -27 1000 q 197 1000 28 1000 q 347 275 235 819 q 498 1000 385 456 q 722 1000 553 1000 q 448 0 654 750 q 247 0 397 0 q -27 1000 179 250 z "},"W":{"ha":1200,"x_min":0,"x_max":1000,"o":"m 0 100 q 0 475 0 250 q 0 1000 0 700 q 199 1000 66 1000 q 199 199 199 734 q 400 199 267 199 q 400 1000 400 467 q 600 1000 467 1000 q 600 199 600 734 q 800 199 667 199 q 800 1000 800 467 q 1000 1000 867 1000 q 1000 100 1000 700 q 971 30 1000 58 q 901 0 941 0 q 600 0 800 0 q 529 30 559 0 q 500 100 500 58 q 471 30 500 58 q 400 0 442 0 q 100 0 300 0 q 30 30 58 0 q 0 100 0 58 z "},"X":{"ha":894,"x_min":-27,"x_max":722,"o":"m 460 500 q 722 1000 525 625 q 498 1000 666 1000 q 347 675 460 918 q 197 1000 309 757 q -27 1000 141 1000 q 235 500 38 875 q 235 500 235 500 q -27 0 148 334 q 197 0 47 0 q 347 326 247 109 q 498 0 397 217 q 722 0 572 0 q 460 500 635 167 q 460 500 460 500 z "},"Y":{"ha":894,"x_min":-27,"x_max":722,"o":"m 498 1000 q 347 675 460 918 q 197 1000 309 757 q -27 1000 141 1000 q 247 450 41 863 q 247 0 247 338 q 448 0 297 0 q 448 450 448 113 q 722 1000 538 633 q 498 1000 647 1000 z "},"Z":{"ha":800,"x_min":0,"x_max":600,"o":"m 0 1000 q 0 925 0 975 q 0 800 0 875 q 365 800 91 800 q 0 199 274 650 q 0 199 0 199 q 0 199 0 199 q 0 176 0 194 q 0 0 0 133 q 600 0 199 0 q 600 199 600 66 q 235 199 479 199 q 600 800 357 400 q 600 800 600 800 q 600 800 600 800 q 600 823 600 808 q 600 1000 600 883 q 0 1000 400 1000 z "},"a":{"ha":800,"x_min":0,"x_max":600,"o":"m 600 0 q 400 0 533 0 q 400 400 400 133 q 199 400 334 400 q 199 0 199 267 q 0 0 133 0 q 0 339 0 113 q 0 572 0 433 q 0 901 0 713 q 30 971 0 941 q 100 1000 58 1000 q 500 1000 233 1000 q 571 971 541 1000 q 600 901 600 941 q 600 0 600 600 m 400 600 q 400 635 400 612 q 400 800 400 690 q 199 800 334 800 q 199 600 199 734 q 400 600 267 600 z "},"b":{"ha":800,"x_min":0,"x_max":600,"o":"m 500 500 q 571 471 541 500 q 600 400 600 442 q 600 100 600 300 q 571 30 600 58 q 500 0 541 0 q 199 0 400 0 q 0 0 133 0 q 0 199 0 66 q 0 400 0 267 q 0 600 0 467 q 0 684 0 633 q 0 800 0 734 q 0 1000 0 867 q 199 1000 66 1000 q 500 1000 300 1000 q 571 971 541 1000 q 600 901 600 941 q 600 600 600 800 q 571 529 600 559 q 500 500 541 500 m 199 600 q 400 600 267 600 q 400 635 400 612 q 400 800 400 690 q 199 800 334 800 q 199 600 199 734 m 199 199 q 400 199 267 199 q 400 235 400 212 q 400 400 400 290 q 199 400 334 400 q 199 199 199 334 z "},"c":{"ha":800,"x_min":0,"x_max":600,"o":"m 400 700 q 400 800 400 734 q 199 800 334 800 q 199 199 199 600 q 400 199 267 199 q 400 300 400 233 q 600 300 467 300 q 600 100 600 233 q 571 30 600 58 q 500 0 541 0 q 100 0 366 0 q 30 30 58 0 q 0 100 0 58 q 0 401 0 201 q 0 608 0 484 q 0 901 0 734 q 30 971 0 941 q 100 1000 58 1000 q 500 1000 233 1000 q 571 971 541 1000 q 600 901 600 941 q 600 700 600 833 q 400 700 533 700 z "},"d":{"ha":779,"x_min":0,"x_max":600,"o":"m 600 901 q 600 100 600 633 q 571 30 600 58 q 500 0 541 0 q 199 0 400 0 q 100 0 167 0 q 0 0 66 0 q 0 416 0 167 q 0 1000 0 666 q 175 1000 58 1000 q 199 1000 183 1000 q 500 1000 300 1000 q 571 971 541 1000 q 600 901 600 941 m 199 199 q 400 199 267 199 q 400 239 400 213 q 400 800 400 426 q 199 800 334 800 q 199 500 199 700 q 199 199 199 400 z "},"e":{"ha":800,"x_min":0,"x_max":600,"o":"m 600 800 q 600 1000 600 850 q 199 1000 500 1000 q 0 1000 151 1000 q 0 800 0 949 q 0 600 0 750 q 0 400 0 551 q 0 317 0 368 q 0 199 0 267 q 0 0 0 133 q 199 0 66 0 q 600 0 334 0 q 600 199 600 66 q 199 199 467 199 q 199 400 199 267 q 500 400 300 400 q 500 600 500 467 q 199 600 400 600 q 199 800 199 667 q 600 800 334 800 z "},"f":{"ha":800,"x_min":0,"x_max":600,"o":"m 199 199 q 199 199 199 199 q 199 400 199 250 q 500 400 275 400 q 500 600 500 450 q 199 600 425 600 q 199 800 199 650 q 600 800 334 800 q 600 1000 600 867 q 199 1000 467 1000 q 0 1000 133 1000 q 0 800 0 933 q 0 716 0 768 q 0 600 0 666 q 0 400 0 533 q 0 199 0 334 q 0 0 0 133 q 199 0 66 0 q 199 0 199 0 q 199 199 199 66 z "},"g":{"ha":800,"x_min":0,"x_max":600,"o":"m 400 700 q 400 800 400 734 q 199 800 334 800 q 199 199 199 600 q 400 199 267 199 q 400 400 400 267 q 300 400 366 400 q 300 600 300 467 q 600 600 400 600 q 600 400 600 533 q 600 100 600 300 q 571 30 600 58 q 500 0 541 0 q 100 0 366 0 q 30 30 58 0 q 0 100 0 58 q 0 401 0 201 q 0 608 0 484 q 0 901 0 734 q 30 971 0 941 q 100 1000 58 1000 q 500 1000 233 1000 q 571 971 541 1000 q 600 901 600 941 q 600 700 600 833 q 400 700 533 700 z "},"h":{"ha":800,"x_min":0,"x_max":600,"o":"m 400 1000 q 400 600 400 901 q 199 600 350 600 q 199 1000 199 700 q 0 1000 151 1000 q 0 600 0 901 q 0 400 0 551 q 0 233 0 334 q 0 0 0 133 q 199 0 66 0 q 199 400 199 133 q 400 400 267 400 q 400 0 400 267 q 600 0 467 0 q 600 400 600 133 q 600 600 600 467 q 600 1000 600 734 q 400 1000 533 1000 z "},"i":{"ha":400,"x_min":0,"x_max":199,"o":"m 0 1000 q 199 1000 50 1000 q 199 250 199 812 q 199 0 199 187 q 0 0 151 0 q 0 416 0 167 q 0 1000 0 666 z "},"j":{"ha":800,"x_min":0,"x_max":600,"o":"m 600 1000 q 600 100 600 700 q 571 30 600 58 q 500 0 541 0 q 100 0 366 0 q 30 30 58 0 q 0 100 0 58 q 0 183 0 133 q 0 300 0 233 q 199 300 66 300 q 199 199 199 267 q 400 199 267 199 q 400 1000 400 467 q 600 1000 467 1000 z "},"k":{"ha":831,"x_min":0,"x_max":631,"o":"m 600 500 q 600 0 600 334 q 400 0 533 0 q 400 400 400 133 q 199 400 334 400 q 199 0 199 267 q 0 0 133 0 q 0 416 0 167 q 0 1000 0 666 q 199 1000 66 1000 q 199 600 199 867 q 243 600 214 600 q 406 1000 297 734 q 631 1000 480 1000 q 444 600 568 867 q 500 600 463 600 q 571 571 541 600 q 600 500 600 541 z "},"l":{"ha":800,"x_min":0,"x_max":600,"o":"m 199 199 q 199 1000 199 400 q 0 1000 151 1000 q 0 625 0 875 q 0 0 0 376 q 50 0 12 0 q 199 0 88 0 q 600 0 300 0 q 600 199 600 66 q 199 199 467 199 z "},"m":{"ha":1200,"x_min":0,"x_max":1000,"o":"m 1000 901 q 1000 0 1000 600 q 800 0 933 0 q 800 800 800 267 q 600 800 734 800 q 600 0 600 533 q 400 0 533 0 q 400 800 400 267 q 199 800 334 800 q 199 0 199 533 q 0 0 133 0 q 0 339 0 113 q 0 572 0 433 q 0 901 0 713 q 30 971 0 941 q 100 1000 58 1000 q 400 1000 199 1000 q 471 971 442 1000 q 500 901 500 941 q 529 971 500 941 q 600 1000 559 1000 q 901 1000 700 1000 q 971 971 941 1000 q 1000 901 1000 941 z "},"n":{"ha":800,"x_min":0,"x_max":600,"o":"m 600 901 q 600 0 600 600 q 400 0 533 0 q 400 800 400 267 q 199 800 334 800 q 199 0 199 533 q 0 0 133 0 q 0 416 0 167 q 0 1000 0 666 q 199 1000 66 1000 q 500 1000 300 1000 q 571 971 541 1000 q 600 901 600 941 z "},"o":{"ha":800,"x_min":0,"x_max":600,"o":"m 600 901 q 600 100 600 633 q 571 30 600 58 q 500 0 541 0 q 100 0 366 0 q 30 30 58 0 q 0 100 0 58 q 0 401 0 201 q 0 608 0 484 q 0 901 0 734 q 30 971 0 941 q 100 1000 58 1000 q 500 1000 233 1000 q 571 971 541 1000 q 600 901 600 941 m 199 199 q 400 199 267 199 q 400 239 400 213 q 400 800 400 426 q 199 800 334 800 q 199 500 199 700 q 199 199 199 400 z "},"p":{"ha":800,"x_min":0,"x_max":600,"o":"m 600 901 q 600 500 600 766 q 571 429 600 458 q 500 400 541 400 q 199 400 400 400 q 199 0 199 267 q 0 0 133 0 q 0 167 0 66 q 0 400 0 266 q 0 600 0 467 q 0 800 0 667 q 0 1000 0 867 q 199 1000 66 1000 q 500 1000 300 1000 q 571 971 541 1000 q 600 901 600 941 m 199 600 q 400 600 267 600 q 400 635 400 612 q 400 800 400 690 q 199 800 334 800 q 199 600 199 734 z "},"q":{"ha":800,"x_min":0,"x_max":600,"o":"m 533 5 q 597 -100 555 -30 q 363 -100 519 -100 q 304 0 345 -66 q 100 0 236 0 q 30 30 58 0 q 0 100 0 58 q 0 401 0 201 q 0 608 0 484 q 0 901 0 734 q 30 971 0 941 q 100 1000 58 1000 q 500 1000 233 1000 q 571 971 541 1000 q 600 901 600 941 q 600 100 600 633 q 582 42 600 68 q 533 5 563 16 m 199 199 q 400 199 267 199 q 400 239 400 213 q 400 800 400 426 q 199 800 334 800 q 199 500 199 700 q 199 199 199 400 z "},"r":{"ha":800,"x_min":0,"x_max":600,"o":"m 500 500 q 571 471 541 500 q 600 400 600 442 q 600 0 600 267 q 400 0 533 0 q 400 400 400 133 q 199 400 334 400 q 199 0 199 267 q 0 0 133 0 q 0 400 0 133 q 0 600 0 467 q 0 766 0 666 q 0 1000 0 867 q 199 1000 66 1000 q 500 1000 300 1000 q 571 971 541 1000 q 600 901 600 941 q 600 600 600 800 q 571 529 600 559 q 500 500 541 500 m 400 600 q 400 635 400 612 q 400 800 400 690 q 199 800 334 800 q 199 600 199 734 q 400 600 267 600 z "},"s":{"ha":800,"x_min":0,"x_max":600,"o":"m 400 700 q 400 800 400 734 q 199 800 334 800 q 199 600 199 734 q 500 600 300 600 q 571 571 541 600 q 600 500 600 541 q 600 100 600 366 q 571 30 600 58 q 500 0 541 0 q 100 0 366 0 q 30 30 58 0 q 0 100 0 58 q 0 300 0 167 q 199 300 66 300 q 199 199 199 267 q 400 199 267 199 q 400 400 400 267 q 100 400 300 400 q 30 429 58 400 q 0 500 0 458 q 0 667 0 567 q 0 901 0 768 q 30 971 0 941 q 100 1000 58 1000 q 500 1000 233 1000 q 571 971 541 1000 q 600 901 600 941 q 600 700 600 833 q 400 700 533 700 z "},"t":{"ha":800,"x_min":0,"x_max":600,"o":"m 600 1000 q 0 1000 450 1000 q 0 925 0 975 q 0 800 0 875 q 199 800 50 800 q 199 0 199 600 q 400 0 250 0 q 400 800 400 199 q 600 800 467 800 q 600 1000 600 867 z "},"u":{"ha":800,"x_min":0,"x_max":600,"o":"m 600 1000 q 600 100 600 700 q 571 30 600 58 q 500 0 541 0 q 100 0 366 0 q 30 30 58 0 q 0 100 0 58 q 0 475 0 250 q 0 1000 0 700 q 199 1000 66 1000 q 199 199 199 734 q 400 199 267 199 q 400 1000 400 467 q 600 1000 467 1000 z "},"v":{"ha":894,"x_min":-27,"x_max":722,"o":"m -27 1000 q 197 1000 28 1000 q 347 275 235 819 q 498 1000 385 456 q 722 1000 553 1000 q 448 0 654 750 q 247 0 397 0 q -27 1000 156 334 z "},"w":{"ha":1200,"x_min":0,"x_max":1000,"o":"m 0 100 q 0 475 0 250 q 0 1000 0 700 q 199 1000 66 1000 q 199 199 199 734 q 400 199 267 199 q 400 1000 400 467 q 600 1000 467 1000 q 600 199 600 734 q 800 199 667 199 q 800 1000 800 467 q 1000 1000 867 1000 q 1000 100 1000 700 q 971 30 1000 58 q 901 0 941 0 q 600 0 800 0 q 529 30 559 0 q 500 100 500 58 q 471 30 500 58 q 400 0 442 0 q 100 0 300 0 q 30 30 58 0 q 0 100 0 58 z "},"x":{"ha":894,"x_min":-27,"x_max":722,"o":"m 460 500 q 722 1000 525 625 q 498 1000 666 1000 q 347 675 460 918 q 197 1000 309 757 q -27 1000 141 1000 q 235 500 38 875 q 235 500 235 500 q -27 0 148 334 q 197 0 47 0 q 347 326 247 109 q 498 0 397 217 q 722 0 572 0 q 460 500 635 167 q 460 500 460 500 z "},"y":{"ha":894,"x_min":-27,"x_max":722,"o":"m 498 1000 q 347 675 460 918 q 197 1000 309 757 q -27 1000 141 1000 q 247 450 41 863 q 247 0 247 338 q 448 0 297 0 q 448 450 448 151 q 722 1000 538 633 q 498 1000 647 1000 z "},"z":{"ha":800,"x_min":0,"x_max":600,"o":"m 0 1000 q 0 800 0 949 q 365 800 91 800 q 0 199 274 650 q 0 199 0 199 q 0 199 0 199 q 0 176 0 194 q 0 103 0 146 q 0 0 0 60 q 600 0 199 0 q 600 199 600 66 q 235 199 479 199 q 600 800 357 400 q 600 800 600 800 q 600 800 600 800 q 600 823 600 808 q 600 1000 600 883 q 0 1000 400 1000 z "},"‐":{"ha":800,"x_min":0,"x_max":600,"o":"m 0 600 q 600 600 151 600 q 600 400 600 551 q 0 400 450 400 q 0 475 0 425 q 0 600 0 525 z "},"‑":{"ha":800,"x_min":0,"x_max":600,"o":"m 0 600 q 600 600 151 600 q 600 400 600 551 q 0 400 450 400 q 0 475 0 425 q 0 600 0 525 z "},"‒":{"ha":800,"x_min":0,"x_max":600,"o":"m 0 600 q 600 600 151 600 q 600 400 600 551 q 0 400 450 400 q 0 475 0 425 q 0 600 0 525 z "},"–":{"ha":800,"x_min":0,"x_max":600,"o":"m 0 600 q 600 600 151 600 q 600 400 600 551 q 0 400 450 400 q 0 475 0 425 q 0 600 0 525 z "},"—":{"ha":800,"x_min":0,"x_max":600,"o":"m 0 600 q 600 600 151 600 q 600 400 600 551 q 0 400 450 400 q 0 475 0 425 q 0 600 0 525 z "},"’":{"ha":400,"x_min":0,"x_max":199,"o":"m 0 1000 q 0 925 0 975 q 0 800 0 875 q 85 800 22 800 q 0 726 65 781 q 0 600 0 693 q 199 800 50 650 q 199 901 199 833 q 199 1000 199 933 q 0 1000 133 1000 z "},"“":{"ha":800,"x_min":0,"x_max":600,"o":"m 600 760 q 498 760 574 760 q 600 850 524 783 q 600 1000 600 901 q 359 760 519 920 q 359 700 359 739 q 359 640 359 680 q 359 519 359 600 q 600 519 439 519 q 600 760 600 600 m 240 519 q 240 760 240 579 q 137 760 214 760 q 240 850 172 789 q 240 1000 240 901 q 0 760 160 920 q 0 640 0 720 q 0 590 0 620 q 0 519 0 559 q 240 519 80 519 z "},"”":{"ha":800,"x_min":0,"x_max":600,"o":"m 0 760 q 103 760 26 760 q 0 670 77 736 q 0 519 0 620 q 240 760 80 600 q 240 880 240 800 q 240 1000 240 921 q 0 1000 160 1000 q 0 899 0 960 q 0 760 0 840 m 359 1000 q 359 970 359 993 q 359 760 359 917 q 463 760 385 760 q 359 670 429 730 q 359 519 359 620 q 600 760 439 600 q 600 880 600 800 q 600 1000 600 921 q 359 1000 519 1000 z "}}}
